<svg width="20" height="20" viewBox="0 0 20 20" fill="none" xmlns="http://www.w3.org/2000/svg">
<path fill-rule="evenodd" clip-rule="evenodd" d="M5.72727 1C5.72727 0.447715 6.17499 0 6.72727 0H13.2727C13.825 0 14.2727 0.447715 14.2727 1V3.27273H19C19.5523 3.27273 20 3.72044 20 4.27273C20 4.82501 19.5523 5.27273 19 5.27273H1C0.447715 5.27273 0 4.82501 0 4.27273C0 3.72044 0.447715 3.27273 1 3.27273H5.72727V1ZM7.72727 3.27273H12.2727V2H7.72727V3.27273ZM3.38332 6.54799C3.9342 6.50866 4.41267 6.92335 4.45201 7.47423L5.16137 17.4086C5.1728 17.5691 5.24465 17.7196 5.36244 17.8293C5.48022 17.939 5.6352 18 5.79618 18H14.2038C14.3648 18 14.5198 17.939 14.6376 17.8293C14.7553 17.7196 14.8272 17.5694 14.8386 17.4088L15.548 7.47423C15.5873 6.92335 16.0658 6.50866 16.6167 6.54799C17.1676 6.58733 17.5823 7.0658 17.5429 7.61668L16.8336 17.5508C16.8336 17.5509 16.8336 17.5507 16.8336 17.5508C16.7862 18.2159 16.4885 18.8385 16.0006 19.2929C15.5127 19.7473 14.8706 20 14.2038 20H5.79621C5.12939 20 4.48734 19.7474 3.99937 19.2929C3.51146 18.8385 3.21384 18.2161 3.16645 17.551C3.16644 17.551 3.16645 17.5511 3.16645 17.551L2.45709 7.61668C2.41775 7.0658 2.83244 6.58733 3.38332 6.54799Z" fill="#27272A"/>
</svg>
