<svg width="18" height="19" viewBox="0 0 18 19" fill="none" xmlns="http://www.w3.org/2000/svg">
<path fill-rule="evenodd" clip-rule="evenodd" d="M13.6627 0.5C12.9732 0.5 12.312 0.773824 11.8245 1.26125L1.09292 11.9928C0.945546 12.1402 0.8479 12.3299 0.813636 12.5355L0.0136187 17.3356C-0.0394742 17.6542 0.0645449 17.9787 0.292906 18.2071C0.521267 18.4355 0.845854 18.5395 1.16441 18.4864L5.96451 17.6864C6.1701 17.6521 6.35984 17.5545 6.50722 17.4071L17.2388 6.67555C17.7262 6.18797 18 5.52676 18 4.83733C18 4.14789 17.7261 3.48658 17.2387 2.999L15.5009 1.26125C15.0133 0.773823 14.3521 0.5 13.6627 0.5ZM12.4141 3.49999L13.2385 2.67568C13.351 2.56326 13.5036 2.5 13.6627 2.5C13.8217 2.5 13.9744 2.56326 14.0869 2.67568L15.8244 4.41321C15.9369 4.52572 16 4.67827 16 4.83733C16 4.99639 15.9368 5.14904 15.8243 5.26155L15 6.08587L12.4141 3.49999ZM10.9999 4.91421L2.73374 13.1804L2.21656 16.2834L5.31961 15.7663L13.5858 7.50008L10.9999 4.91421Z" fill="#808089"/>
</svg>
