<svg width="20" height="20" viewBox="0 0 20 20" fill="none" xmlns="http://www.w3.org/2000/svg">
<path fill-rule="evenodd" clip-rule="evenodd" d="M17.3808 1.23766L19.8808 5.40433C19.9588 5.53392 20 5.68228 20 5.8335C20.0018 6.47766 19.8165 7.10849 19.4666 7.64937C19.1167 8.19026 18.6174 8.61793 18.0291 8.88046C17.4409 9.14299 16.7891 9.22909 16.1528 9.1283C15.5166 9.0275 14.9233 8.74416 14.445 8.31266C13.8357 8.86428 13.0432 9.16976 12.2213 9.16976C11.3994 9.16976 10.6068 8.86428 9.9975 8.31266C9.38847 8.86312 8.59677 9.16787 7.77584 9.16787C6.95491 9.16787 6.16321 8.86312 5.55417 8.31266C4.94336 8.86442 4.14896 9.16893 3.32584 9.16683H3.31917C2.4371 9.16462 1.59199 8.81227 0.969597 8.18722C0.347204 7.56217 -0.00154397 6.71557 5.13874e-06 5.8335C5.29978e-05 5.68228 0.0412467 5.53392 0.119172 5.40433L2.61917 1.23766C2.69323 1.1144 2.79791 1.0124 2.92306 0.941581C3.0482 0.870759 3.18954 0.833523 3.33334 0.833496H16.6667C16.8105 0.833523 16.9518 0.870759 17.077 0.941581C17.2021 1.0124 17.3068 1.1144 17.3808 1.23766ZM14.4475 10.3102C15.1412 10.6549 15.9054 10.8341 16.68 10.8335C16.955 10.8299 17.2293 10.8037 17.5 10.7552V19.1668C17.5 19.3878 17.4122 19.5998 17.2559 19.7561C17.0996 19.9124 16.8877 20.0002 16.6667 20.0002H11.6667V15.0002H8.33333V20.0002H3.33333C3.11232 20.0002 2.90036 19.9124 2.74408 19.7561C2.5878 19.5998 2.5 19.3878 2.5 19.1668V10.7585C2.7728 10.8058 3.04898 10.8309 3.32583 10.8335C4.09892 10.8348 4.86174 10.6565 5.55417 10.3127C5.75887 10.414 5.97018 10.5014 6.18667 10.5743C6.80604 10.7849 7.46101 10.8705 8.1137 10.8263C8.76639 10.7821 9.40384 10.609 9.98917 10.3168L9.99833 10.3127C10.2033 10.414 10.4149 10.5015 10.6317 10.5743C11.2513 10.7844 11.9064 10.8698 12.5592 10.8254C13.2119 10.7811 13.8495 10.6079 14.435 10.316L14.4475 10.3102Z" fill="#C4C4CF"/>
</svg>
